<?xml version="1.0" encoding="utf-8"?>
<!-- Generator: Adobe Illustrator 27.1.1, SVG Export Plug-In . SVG Version: 6.00 Build 0)  -->
<svg version="1.1" id="Layer_1" xmlns="http://www.w3.org/2000/svg" xmlns:xlink="http://www.w3.org/1999/xlink" x="0px" y="0px"
	 viewBox="0 0 296.8 360.1" style="enable-background:new 0 0 296.8 360.1;" xml:space="preserve">
<style type="text/css">
	.st0{fill:#EC1C24;}
	.st1{fill:#FFFFFF;}
</style>
<g>
	<g>
		<g>
			<g id="Sygnet_00000147194554606441723560000012908841531615271837_">
				<path class="st0" d="M244.4,300.4l-83.6,56.3c-6.6,4.5-15.3,4.5-22,0.1l-85.5-56.5C20,278.3,0,241.1,0,201.2V64.4
					c0-17.9,12.1-33.6,29.4-38.2l78.2-20.9c26.7-7.1,54.8-7.1,81.6,0l78.2,20.9c17.3,4.6,29.4,20.3,29.4,38.2v137.4
					C296.8,241.4,277.1,278.3,244.4,300.4z"/>
				<path class="st1" d="M217.6,120.6H79.1c-10.9,0-19.8-8.9-19.8-19.8l0,0c0-10.9,8.9-19.8,19.8-19.8h138.5
					c10.9,0,19.8,8.9,19.8,19.8l0,0C237.4,111.8,228.6,120.6,217.6,120.6z M148.4,160.2L148.4,160.2c0-10.9-8.9-19.8-19.8-19.8H79.1
					c-10.9,0-19.8,8.9-19.8,19.8l0,0c0,10.9,8.9,19.8,19.8,19.8h49.5C139.5,180,148.4,171.1,148.4,160.2z M98.9,219.6L98.9,219.6
					c0-10.9-8.9-19.8-19.8-19.8l0,0c-10.9,0-19.8,8.9-19.8,19.8l0,0c0,10.9,8.9,19.8,19.8,19.8l0,0
					C90.1,239.4,98.9,230.5,98.9,219.6z"/>
			</g>
		</g>
	</g>
</g>
</svg>
