<svg xmlns="http://www.w3.org/2000/svg" width="300" height="300" viewBox="0 0 300 300" version="1.1"><path d="M 129.658 54.190 C 128.851 55.460, 127.887 58.815, 127.516 61.645 L 126.841 66.790 121.068 68.895 C 117.893 70.053, 114.883 71, 114.379 71 C 113.875 71, 111.285 69.200, 108.623 67 C 105.960 64.800, 103.156 63, 102.391 63 C 99.949 63, 96.929 66.850, 97.477 69.265 C 99.997 80.370, 100.176 79.346, 94.928 83.866 C 92.288 86.140, 89.441 88, 88.601 88 C 87.761 88, 84.783 87.097, 81.983 85.993 C 78.239 84.518, 76.396 84.253, 75.014 84.992 C 71.712 86.759, 71.731 89.507, 75.086 95.709 L 78.258 101.573 75.034 107.287 L 71.809 113 65.105 113 C 57.728 113, 56 113.966, 56 118.092 C 56 120.145, 57.178 121.683, 60.957 124.565 C 65.891 128.328, 65.911 128.368, 65.295 132.923 C 64.087 141.855, 63.787 142.323, 58.204 143.973 C 51.381 145.989, 49.295 148.092, 50.556 151.679 C 51.322 153.857, 52.725 154.779, 57.696 156.369 C 63.737 158.301, 63.897 158.444, 64.495 162.424 C 64.832 164.666, 65.330 167.677, 65.603 169.115 C 66.019 171.304, 65.276 172.420, 61.050 175.958 C 55.398 180.690, 54.550 183.870, 58.250 186.464 C 59.965 187.666, 61.835 187.890, 66.113 187.407 L 71.727 186.773 74.863 192.564 C 76.588 195.749, 78 198.705, 78 199.134 C 78 199.562, 76.650 202.202, 75 205 C 71.504 210.930, 71.356 212.107, 73.829 214.345 C 76.214 216.504, 77.689 216.434, 83.856 213.871 L 88.979 211.742 93.661 215.621 C 96.236 217.754, 98.682 219.731, 99.097 220.013 C 99.512 220.295, 99.269 223.317, 98.557 226.728 C 97.460 231.982, 97.480 233.241, 98.688 234.965 C 100.827 238.018, 103.688 237.448, 109.143 232.880 L 114.064 228.760 119.165 230.880 C 121.971 232.046, 124.831 233, 125.520 233 C 126.252 233, 127.058 234.975, 127.458 237.750 C 128.568 245.441, 129.124 246.996, 131.153 248.082 C 134.339 249.787, 136.592 248.243, 139.856 242.119 L 142.961 236.294 150.040 236.294 L 157.120 236.294 160.036 242.072 C 163.090 248.122, 165.598 249.821, 168.881 248.064 C 170.795 247.039, 171.272 245.644, 172.496 237.480 C 173.082 233.568, 173.275 233.398, 179.600 231.190 L 186.103 228.920 190.692 232.960 C 198.132 239.509, 202.787 237.928, 201.663 229.232 C 201.326 226.630, 200.796 223.600, 200.484 222.500 C 200.043 220.944, 201.161 219.533, 205.521 216.143 L 211.125 211.785 216.196 213.893 C 222.721 216.604, 224.595 216.547, 226.542 213.576 C 227.999 211.352, 227.990 210.879, 226.431 207.826 C 225.496 205.997, 223.953 203.375, 223.003 202 C 221.318 199.564, 221.363 199.338, 224.788 193.138 L 228.303 186.776 233.901 187.408 C 238.165 187.890, 240.036 187.665, 241.750 186.464 C 245.450 183.870, 244.602 180.690, 238.950 175.958 C 234.724 172.420, 233.981 171.304, 234.397 169.115 C 234.670 167.677, 235.168 164.666, 235.505 162.424 C 236.103 158.444, 236.263 158.301, 242.304 156.369 C 247.236 154.791, 248.681 153.849, 249.428 151.725 C 250.718 148.056, 248.213 145.491, 241.848 143.964 C 236.312 142.636, 235.702 141.741, 234.625 133.380 L 233.966 128.260 238.482 124.880 C 240.966 123.021, 243.290 120.418, 243.646 119.095 C 244.793 114.839, 242.961 113.546, 235.010 113 C 228.065 112.523, 227.648 112.353, 226.037 109.340 C 225.108 107.602, 223.640 105.100, 222.775 103.779 C 221.283 101.502, 221.383 101.082, 224.727 95.614 C 227.702 90.750, 228.086 89.485, 227.187 87.512 C 225.641 84.119, 222.906 83.683, 217.555 85.976 C 214.959 87.089, 212.084 87.983, 211.167 87.962 C 210.250 87.940, 207.374 86.028, 204.775 83.712 C 200.124 79.565, 200.065 79.438, 201.001 75.500 C 202.549 68.989, 202.240 65.199, 200.066 64.035 C 197.154 62.477, 196.606 62.663, 190.967 67.121 L 185.754 71.241 180.319 69.394 C 172.949 66.889, 173.097 67.037, 172.388 61.446 C 171.598 55.217, 169.638 52, 166.632 52 C 163.900 52, 162.021 53.933, 159.096 59.750 L 156.959 64 150.120 64 L 143.281 64 139.890 58.250 C 135.951 51.570, 132.254 50.102, 129.658 54.190 M 133.928 79.048 C 127.651 80.536, 119 84.108, 119 85.211 C 119 85.798, 120.350 88.473, 122 91.154 C 123.650 93.836, 125 96.215, 125 96.442 C 125 96.668, 127.192 100.425, 129.871 104.790 C 132.550 109.155, 134.913 113.126, 135.121 113.613 C 135.330 114.101, 137.283 117.537, 139.463 121.250 L 143.426 128 149.463 128.022 C 159.118 128.057, 165.888 132.186, 170.744 141 L 172.672 144.500 197.086 144.500 L 221.500 144.500 221.187 140 C 220.716 133.237, 214.950 117.284, 210.525 110.500 C 204.546 101.334, 193.199 90.847, 184.187 86.158 C 172.247 79.946, 163.793 77.981, 149.520 78.100 C 142.909 78.156, 135.893 78.582, 133.928 79.048 M 99.847 98.070 C 90.743 107.190, 86.063 114.745, 81.893 127.054 C 74.881 147.751, 77.478 170.168, 89.145 189.663 C 92.053 194.521, 105.392 209, 106.959 209 C 107.265 209, 108.680 207.088, 110.104 204.750 C 111.528 202.412, 117.262 193.013, 122.847 183.862 C 128.431 174.711, 133 166.919, 133 166.545 C 133 166.172, 131.900 164.424, 130.555 162.661 C 124.822 155.144, 125.412 145.410, 132.179 135.874 C 133.130 134.535, 131.272 130.729, 121.634 114.272 C 115.200 103.284, 109.335 93.472, 108.600 92.467 C 107.363 90.775, 106.713 91.191, 99.847 98.070 M 142.766 142.918 C 139.962 145.423, 139.500 146.496, 139.500 150.500 C 139.500 154.504, 139.962 155.577, 142.766 158.082 C 145.211 160.267, 147.028 161, 150 161 C 152.972 161, 154.789 160.267, 157.234 158.082 C 160.038 155.577, 160.500 154.504, 160.500 150.500 C 160.500 146.496, 160.038 145.423, 157.234 142.918 C 154.789 140.733, 152.972 140, 150 140 C 147.028 140, 145.211 140.733, 142.766 142.918 M 170.919 159.196 C 167.327 167.866, 158.947 173.360, 149.408 173.295 L 143.317 173.254 137.769 182.377 C 134.718 187.395, 128.954 196.832, 124.961 203.348 C 116.887 216.524, 116.835 215.601, 125.853 219.020 C 137.360 223.382, 157.863 224.012, 170.094 220.380 C 190.036 214.457, 208.049 198.445, 215.851 179.704 C 218.485 173.376, 222 160.361, 222 156.935 C 222 156.380, 211.880 156, 197.121 156 L 172.243 156 170.919 159.196" stroke="none" fill="#f9f9fa" fill-rule="evenodd"/><path d="M 51.500 1.469 C 28.210 7.815, 12.203 22.167, 3.628 44.392 L 0.500 52.500 0.500 149.500 C 0.500 241.552, 0.595 246.781, 2.366 252 C 10.091 274.766, 25.234 289.909, 48 297.634 C 53.219 299.405, 58.436 299.500, 150 299.500 C 241.564 299.500, 246.781 299.405, 252 297.634 C 275.052 289.812, 291.293 273.348, 297.510 251.500 C 298.449 248.200, 299.618 244.719, 300.109 243.764 C 301.389 241.270, 301.281 54.708, 300 55.500 C 299.450 55.840, 299 55.204, 299 54.088 C 299 52.971, 297.705 48.509, 296.122 44.171 C 289.134 25.024, 275.375 11.255, 255.608 3.628 L 247.500 0.500 152 0.303 C 74.043 0.143, 55.582 0.357, 51.500 1.469 M 129.658 54.190 C 128.851 55.460, 127.887 58.815, 127.516 61.645 L 126.841 66.790 121.068 68.895 C 117.893 70.053, 114.883 71, 114.379 71 C 113.875 71, 111.285 69.200, 108.623 67 C 105.960 64.800, 103.156 63, 102.391 63 C 99.949 63, 96.929 66.850, 97.477 69.265 C 99.997 80.370, 100.176 79.346, 94.928 83.866 C 92.288 86.140, 89.441 88, 88.601 88 C 87.761 88, 84.783 87.097, 81.983 85.993 C 78.239 84.518, 76.396 84.253, 75.014 84.992 C 71.712 86.759, 71.731 89.507, 75.086 95.709 L 78.258 101.573 75.034 107.287 L 71.809 113 65.105 113 C 57.728 113, 56 113.966, 56 118.092 C 56 120.145, 57.178 121.683, 60.957 124.565 C 65.891 128.328, 65.911 128.368, 65.295 132.923 C 64.087 141.855, 63.787 142.323, 58.204 143.973 C 51.381 145.989, 49.295 148.092, 50.556 151.679 C 51.322 153.857, 52.725 154.779, 57.696 156.369 C 63.737 158.301, 63.897 158.444, 64.495 162.424 C 64.832 164.666, 65.330 167.677, 65.603 169.115 C 66.019 171.304, 65.276 172.420, 61.050 175.958 C 55.398 180.690, 54.550 183.870, 58.250 186.464 C 59.965 187.666, 61.835 187.890, 66.113 187.407 L 71.727 186.773 74.863 192.564 C 76.588 195.749, 78 198.705, 78 199.134 C 78 199.562, 76.650 202.202, 75 205 C 71.504 210.930, 71.356 212.107, 73.829 214.345 C 76.214 216.504, 77.689 216.434, 83.856 213.871 L 88.979 211.742 93.661 215.621 C 96.236 217.754, 98.682 219.731, 99.097 220.013 C 99.512 220.295, 99.269 223.317, 98.557 226.728 C 97.460 231.982, 97.480 233.241, 98.688 234.965 C 100.827 238.018, 103.688 237.448, 109.143 232.880 L 114.064 228.760 119.165 230.880 C 121.971 232.046, 124.831 233, 125.520 233 C 126.252 233, 127.058 234.975, 127.458 237.750 C 128.568 245.441, 129.124 246.996, 131.153 248.082 C 134.339 249.787, 136.592 248.243, 139.856 242.119 L 142.961 236.294 150.040 236.294 L 157.120 236.294 160.036 242.072 C 163.090 248.122, 165.598 249.821, 168.881 248.064 C 170.795 247.039, 171.272 245.644, 172.496 237.480 C 173.082 233.568, 173.275 233.398, 179.600 231.190 L 186.103 228.920 190.692 232.960 C 198.132 239.509, 202.787 237.928, 201.663 229.232 C 201.326 226.630, 200.796 223.600, 200.484 222.500 C 200.043 220.944, 201.161 219.533, 205.521 216.143 L 211.125 211.785 216.196 213.893 C 222.721 216.604, 224.595 216.547, 226.542 213.576 C 227.999 211.352, 227.990 210.879, 226.431 207.826 C 225.496 205.997, 223.953 203.375, 223.003 202 C 221.318 199.564, 221.363 199.338, 224.788 193.138 L 228.303 186.776 233.901 187.408 C 238.165 187.890, 240.036 187.665, 241.750 186.464 C 245.450 183.870, 244.602 180.690, 238.950 175.958 C 234.724 172.420, 233.981 171.304, 234.397 169.115 C 234.670 167.677, 235.168 164.666, 235.505 162.424 C 236.103 158.444, 236.263 158.301, 242.304 156.369 C 247.236 154.791, 248.681 153.849, 249.428 151.725 C 250.718 148.056, 248.213 145.491, 241.848 143.964 C 236.312 142.636, 235.702 141.741, 234.625 133.380 L 233.966 128.260 238.482 124.880 C 240.966 123.021, 243.290 120.418, 243.646 119.095 C 244.793 114.839, 242.961 113.546, 235.010 113 C 228.065 112.523, 227.648 112.353, 226.037 109.340 C 225.108 107.602, 223.640 105.100, 222.775 103.779 C 221.283 101.502, 221.383 101.082, 224.727 95.614 C 227.702 90.750, 228.086 89.485, 227.187 87.512 C 225.641 84.119, 222.906 83.683, 217.555 85.976 C 214.959 87.089, 212.084 87.983, 211.167 87.962 C 210.250 87.940, 207.374 86.028, 204.775 83.712 C 200.124 79.565, 200.065 79.438, 201.001 75.500 C 202.549 68.989, 202.240 65.199, 200.066 64.035 C 197.154 62.477, 196.606 62.663, 190.967 67.121 L 185.754 71.241 180.319 69.394 C 172.949 66.889, 173.097 67.037, 172.388 61.446 C 171.598 55.217, 169.638 52, 166.632 52 C 163.900 52, 162.021 53.933, 159.096 59.750 L 156.959 64 150.120 64 L 143.281 64 139.890 58.250 C 135.951 51.570, 132.254 50.102, 129.658 54.190 M 0.480 150 C 0.480 201.975, 0.601 223.237, 0.750 197.250 C 0.898 171.262, 0.898 128.737, 0.750 102.750 C 0.601 76.762, 0.480 98.025, 0.480 150 M 133.928 79.048 C 127.651 80.536, 119 84.108, 119 85.211 C 119 85.798, 120.350 88.473, 122 91.154 C 123.650 93.836, 125 96.215, 125 96.442 C 125 96.668, 127.192 100.425, 129.871 104.790 C 132.550 109.155, 134.913 113.126, 135.121 113.613 C 135.330 114.101, 137.283 117.537, 139.463 121.250 L 143.426 128 149.463 128.022 C 159.118 128.057, 165.888 132.186, 170.744 141 L 172.672 144.500 197.086 144.500 L 221.500 144.500 221.187 140 C 220.716 133.237, 214.950 117.284, 210.525 110.500 C 204.546 101.334, 193.199 90.847, 184.187 86.158 C 172.247 79.946, 163.793 77.981, 149.520 78.100 C 142.909 78.156, 135.893 78.582, 133.928 79.048 M 99.847 98.070 C 90.743 107.190, 86.063 114.745, 81.893 127.054 C 74.881 147.751, 77.478 170.168, 89.145 189.663 C 92.053 194.521, 105.392 209, 106.959 209 C 107.265 209, 108.680 207.088, 110.104 204.750 C 111.528 202.412, 117.262 193.013, 122.847 183.862 C 128.431 174.711, 133 166.919, 133 166.545 C 133 166.172, 131.900 164.424, 130.555 162.661 C 124.822 155.144, 125.412 145.410, 132.179 135.874 C 133.130 134.535, 131.272 130.729, 121.634 114.272 C 115.200 103.284, 109.335 93.472, 108.600 92.467 C 107.363 90.775, 106.713 91.191, 99.847 98.070 M 142.766 142.918 C 139.962 145.423, 139.500 146.496, 139.500 150.500 C 139.500 154.504, 139.962 155.577, 142.766 158.082 C 145.211 160.267, 147.028 161, 150 161 C 152.972 161, 154.789 160.267, 157.234 158.082 C 160.038 155.577, 160.500 154.504, 160.500 150.500 C 160.500 146.496, 160.038 145.423, 157.234 142.918 C 154.789 140.733, 152.972 140, 150 140 C 147.028 140, 145.211 140.733, 142.766 142.918 M 170.919 159.196 C 167.327 167.866, 158.947 173.360, 149.408 173.295 L 143.317 173.254 137.769 182.377 C 134.718 187.395, 128.954 196.832, 124.961 203.348 C 116.887 216.524, 116.835 215.601, 125.853 219.020 C 137.360 223.382, 157.863 224.012, 170.094 220.380 C 190.036 214.457, 208.049 198.445, 215.851 179.704 C 218.485 173.376, 222 160.361, 222 156.935 C 222 156.380, 211.880 156, 197.121 156 L 172.243 156 170.919 159.196" stroke="none" fill="#87919c" fill-rule="evenodd"/></svg>