<svg xmlns="http://www.w3.org/2000/svg" viewBox="0 0 80 80"><defs><style>.cls-1{fill:#007aff;}.cls-2{fill:#fff;}</style></defs><title>Asset 1</title><g id="Layer_2" data-name="Layer 2"><g id="Layer_1-2" data-name="Layer 1"><circle class="cls-1" cx="40" cy="40" r="40"/><g id="Page-1"><g id="iPhone-8"><g id="Group-3"><path id="Fill-1" class="cls-2" d="M43,38.18v.88a1.13,1.13,0,0,0,2.25,0V19.22a2.65,2.65,0,0,1,5.26,0V41.35c0,2.15,0,3.63,1.65,3.63s2.25-4.71,5.1-6.46,6.23-1.48,6.23-.4-5.25,5.38-7.28,12.24a31.13,31.13,0,0,1-4.62,9.27A15.36,15.36,0,0,1,38.51,66.5c-8.29,0-15-6-15-13.45V23.59a2.26,2.26,0,0,1,4.5,0V39.73a1.13,1.13,0,0,0,2.25,0V17.2a2.65,2.65,0,0,1,5.26,0V38.39a1.13,1.13,0,0,0,2.25,0V15.85a2.64,2.64,0,0,1,5.25,0Z"/></g></g></g></g></g></svg>